<svg width="19" height="20" viewBox="0 0 19 20" fill="none" xmlns="http://www.w3.org/2000/svg">
    <path
        d="M16.1847 11.0466C16.1846 11.1194 16.209 11.1901 16.2541 11.2471L17.2146 12.457C17.3884 12.6745 17.4925 12.9392 17.5133 13.2168C17.5341 13.4943 17.4709 13.7717 17.3317 14.0127L16.7685 14.9873C16.6295 15.2285 16.4212 15.4222 16.1705 15.543C15.9198 15.664 15.6384 15.7064 15.3632 15.6648L13.8332 15.4321C13.7608 15.422 13.6872 15.436 13.6236 15.472L11.8108 16.5186C11.7478 16.5556 11.6989 16.6126 11.6719 16.6806L11.1075 18.1206C11.0064 18.3794 10.8297 18.6018 10.6003 18.7587C10.3709 18.9155 10.0996 18.9997 9.82175 19H8.69547C8.41759 18.9997 8.14627 18.9155 7.91692 18.7587C7.68756 18.6018 7.51081 18.3794 7.40975 18.1206L6.84532 16.6806C6.81832 16.6126 6.76946 16.5556 6.70647 16.5186L4.89361 15.472C4.83008 15.4359 4.75638 15.4219 4.68403 15.4321L3.15403 15.6648C2.87882 15.7064 2.59747 15.664 2.34677 15.543C2.09607 15.4222 1.88764 15.2285 1.74875 14.9873L1.18561 14.0127C1.04635 13.7717 0.983019 13.4943 1.0039 13.2168C1.02476 12.9392 1.12888 12.6745 1.30261 12.457L2.26818 11.2471C2.31336 11.1901 2.33784 11.1194 2.33761 11.0466V8.95342C2.33784 8.88064 2.31336 8.80993 2.26818 8.75286L1.30261 7.543C1.12888 7.32555 1.02476 7.06076 1.0039 6.78321C0.983019 6.50567 1.04635 6.22828 1.18561 5.98728L1.74875 5.01272C1.88764 4.77152 2.09607 4.57782 2.34677 4.45694C2.59747 4.33606 2.87882 4.29361 3.15403 4.33514L4.68018 4.56786C4.75252 4.57811 4.82622 4.56409 4.88975 4.528L6.70647 3.47628C6.76946 3.4392 6.81832 3.38221 6.84532 3.31428L7.41232 1.87942C7.51339 1.62058 7.69014 1.39822 7.91948 1.24134C8.14885 1.08446 8.42016 1.00035 8.69803 1H9.82689C10.1048 1.00035 10.3761 1.08446 10.6054 1.24134C10.8348 1.39822 11.0115 1.62058 11.1126 1.87942L11.677 3.31428C11.7031 3.38411 11.752 3.44305 11.8159 3.48142L13.6288 4.528C13.6923 4.564 13.766 4.57801 13.8383 4.56786L15.3684 4.33514C15.6436 4.29361 15.9249 4.33606 16.1756 4.45694C16.4263 4.57782 16.6347 4.77152 16.7737 5.01272L17.3367 5.98728C17.476 6.22828 17.5393 6.50567 17.5184 6.78321C17.4976 7.06076 17.3934 7.32555 17.2198 7.543L16.2541 8.75286C16.209 8.80993 16.1846 8.88064 16.1847 8.95342V11.0466Z"
        stroke="currentColor" stroke-width="1.71429"/>
    <path
        d="M9.26119 14.1443C11.55 14.1443 13.4055 12.2888 13.4055 10C13.4055 7.71116 11.55 5.85568 9.26119 5.85568C6.97235 5.85568 5.11687 7.71116 5.11687 10C5.11687 12.2888 6.97235 14.1443 9.26119 14.1443Z"
        stroke="currentColor" stroke-width="1.71429"/>
</svg>
