<svg width="28" height="24" viewBox="0 0 28 24" fill="none" xmlns="http://www.w3.org/2000/svg">
    <path
        d="M11.9796 21.7778C11.9796 22.2173 11.8391 22.6469 11.5758 23.0124C11.3125 23.3778 10.9383 23.6626 10.5006 23.8308C10.0628 23.999 9.58101 24.043 9.11625 23.9573C8.65149 23.8716 8.22458 23.6599 7.8895 23.3491C7.55443 23.0383 7.32624 22.6424 7.23379 22.2113C7.14134 21.7802 7.18879 21.3334 7.37013 20.9274C7.55147 20.5213 7.85856 20.1742 8.25257 19.9301C8.64658 19.6859 9.1098 19.5556 9.58367 19.5556C10.2181 19.5585 10.8257 19.7935 11.2744 20.2097C11.723 20.6258 11.9764 21.1893 11.9796 21.7778ZM22.0424 19.5556C21.5686 19.5556 21.1054 19.6859 20.7113 19.9301C20.3173 20.1742 20.0102 20.5213 19.8289 20.9274C19.6476 21.3334 19.6001 21.7802 19.6926 22.2113C19.785 22.6424 20.0132 23.0383 20.3483 23.3491C20.6834 23.6599 21.1103 23.8716 21.575 23.9573C22.0398 24.043 22.5215 23.999 22.9593 23.8308C23.3971 23.6626 23.7713 23.3778 24.0346 23.0124C24.2978 22.6469 24.4384 22.2173 24.4384 21.7778C24.4352 21.1893 24.1818 20.6258 23.7331 20.2097C23.2845 19.7935 22.6769 19.5585 22.0424 19.5556ZM27.9484 6.14444L25.0493 15.5222C24.8473 16.1708 24.4241 16.7411 23.8431 17.1478C23.2621 17.5544 22.5547 17.7755 21.8268 17.7778H9.7993C9.07146 17.7755 8.36402 17.5544 7.78304 17.1478C7.20206 16.7411 6.77883 16.1708 6.5768 15.5222L3.68971 6.16667C3.68971 6.15556 3.67773 6.13333 3.67773 6.12222L2.61155 2.66667H1.43755C1.05629 2.66667 0.690642 2.52619 0.421049 2.27614C0.151456 2.02609 0 1.68696 0 1.33333C0 0.979711 0.151456 0.640573 0.421049 0.390524C0.690642 0.140476 1.05629 0 1.43755 0H2.97094C3.49149 0.00366197 3.99703 0.162154 4.41322 0.452168C4.82941 0.742182 5.13428 1.14841 5.283 1.61111L6.14553 4.44444H26.5588C26.7811 4.44562 27.0002 4.49423 27.199 4.58651C27.3979 4.67879 27.5712 4.81226 27.7055 4.97661C27.8399 5.14095 27.9317 5.33176 27.9738 5.53427C28.0159 5.73677 28.0072 5.94555 27.9484 6.14444ZM24.654 7.11111H6.97212L9.3321 14.7889C9.36276 14.8818 9.42463 14.9632 9.50868 15.0211C9.59273 15.0791 9.69456 15.1106 9.7993 15.1111H21.8268C21.9316 15.1106 22.0334 15.0791 22.1174 15.0211C22.2015 14.9632 22.2634 14.8818 22.294 14.7889L24.654 7.11111Z"
        fill="white"/>
</svg>
