<svg width="20" height="19" viewBox="0 0 20 19" fill="none" xmlns="http://www.w3.org/2000/svg">
    <path
        d="M6.41195 17.4569H13.5879M10 13.0596V17.4568M1.50594 11.9531C1.61557 12.6863 2.25091 13.2334 2.99191 13.2112C5.26257 13.1432 7.57577 13.0558 10 13.0558C12.4148 13.0558 14.7284 13.1106 16.9859 13.1946C17.7363 13.2225 18.3863 12.6732 18.4974 11.9307C18.7299 10.3787 19 8.76171 19 7.10032C19 5.44472 18.7317 3.83323 18.4999 2.28621C18.3876 1.53697 17.7269 0.98605 16.97 1.01785C14.7382 1.11158 12.4034 1.1448 10 1.1448C7.58686 1.1448 5.25183 1.07941 3.00726 1.0009C2.2598 0.974746 1.61432 1.52337 1.50361 2.26304C1.27101 3.81715 1 5.43646 1 7.10032C1 8.76973 1.27282 10.3943 1.50594 11.9531Z"
        stroke="currentColor" stroke-width="1.71429" stroke-linecap="round"/>
</svg>
