<svg width="18" height="20" viewBox="0 0 18 20" fill="none" xmlns="http://www.w3.org/2000/svg">
    <path
        d="M10.135 5.43111L11.467 2.40726C11.6359 2.02369 11.6947 1.55931 11.3152 1.38152C10.2292 0.872825 7.27737 0.872825 6.19143 1.38152C5.81189 1.55931 5.87067 2.02369 6.03963 2.40726L7.37159 5.43111C7.61934 5.9936 8.12469 6.29277 8.64649 6.32866C8.63192 6.3286 8.61735 6.32859 8.60275 6.32859C3.73699 6.32859 1 9.05163 1 13.8926C1 18.7335 3.73699 19 8.60275 19C13.4686 19 16.2054 18.7335 16.2054 13.8926C16.2054 9.12673 13.5528 6.41359 8.82768 6.33055C9.36086 6.30505 9.88213 6.00524 10.135 5.43111Z"
        stroke="currentColor" stroke-width="1.71429" stroke-linejoin="round"/>
</svg>
