<svg width="20" height="20" viewBox="0 0 20 20" fill="none" xmlns="http://www.w3.org/2000/svg">
    <path
        d="M10 19C14.9706 19 19 14.9706 19 10C19 5.02944 14.9706 1 10 1C5.02944 1 1 5.02944 1 10C1 14.9706 5.02944 19 10 19ZM10 19C11.9966 19 13.8413 18.3498 15.334 17.2497C15.0368 16.1301 14.3937 15.1296 13.4927 14.393C12.5069 13.5873 11.273 13.1472 9.99991 13.1472C8.72682 13.1472 7.49287 13.5873 6.50716 14.393C5.60604 15.1296 4.96302 16.1301 4.66574 17.2497C6.1585 18.3498 8.00337 19 10 19ZM10 10.8353C11.7391 10.8353 13.149 9.4255 13.149 7.68638C13.149 5.94726 11.7391 4.53742 10 4.53742C8.26088 4.53742 6.85105 5.94726 6.85105 7.68638C6.85105 9.4255 8.26088 10.8353 10 10.8353Z"
        stroke="currentColor" stroke-width="1.71429" stroke-linecap="round"
        stroke-linejoin="round"/>
</svg>
