<svg width="30" height="26" viewBox="0 0 30 26" fill="none" xmlns="http://www.w3.org/2000/svg">
    <path
        d="M16.1447 3.18888L14.996 4.33039L13.8436 3.18784C10.9054 0.274647 6.14175 0.274647 3.20361 3.18784C0.265464 6.10105 0.265464 10.8243 3.20361 13.7374L14.2551 24.6951C14.6651 25.1016 15.3297 25.1016 15.7396 24.6951L26.7997 13.7355C29.7313 10.8125 29.7363 6.10262 26.7976 3.18888C23.8541 0.270373 19.0882 0.270373 16.1447 3.18888ZM25.3109 12.2674L14.9974 22.487L4.68825 12.2655C2.57006 10.1652 2.57006 6.76011 4.68825 4.65988C6.80645 2.55967 10.2407 2.55967 12.3589 4.65988L14.259 6.54383C14.6758 6.95722 15.3543 6.94917 15.7612 6.52599L17.6293 4.66092C19.7528 2.55541 23.1895 2.55539 25.313 4.66092C27.4316 6.76164 27.428 10.1566 25.3109 12.2674Z"
        fill="white" stroke="white"/>
</svg>
