<svg width="19" height="20" viewBox="0 0 19 20" fill="none" xmlns="http://www.w3.org/2000/svg">
    <path
        d="M16.0041 9.53454L16.4999 8.83534L16.4998 8.83533L16.0041 9.53454ZM16.3614 13.273L15.8413 12.5917L15.8413 12.5918L16.3614 13.273ZM12.1644 15.0989L12.3082 15.9439L12.3082 15.9439L12.1644 15.0989ZM5.03038 13.4729L4.5346 14.1721L4.53461 14.1721L5.03038 13.4729ZM1.1356 7.27869L0.290615 7.42252L0.290616 7.42252L1.1356 7.27869ZM1.46997 2.7139L0.654958 2.44848L0.654957 2.44849L1.46997 2.7139ZM5.11618 1.81429L4.62039 2.51349L4.6204 2.51349L5.11618 1.81429ZM4.92924 13.3289C5.20192 12.942 5.10927 12.4072 4.7223 12.1346C4.33533 11.8619 3.80059 11.9545 3.52791 12.3415L4.92924 13.3289ZM1.491 16.7203L0.790335 16.2265L0.790327 16.2266L1.491 16.7203ZM2.66917 18.9948L2.67013 18.1377H2.67013L2.66917 18.9948ZM7.34144 19L7.34049 19.8571H7.34054L7.34144 19ZM8.60896 16.8636L9.36082 16.452L9.3608 16.4519L8.60896 16.8636ZM8.17697 14.2897C7.94963 13.8745 7.42873 13.7221 7.0135 13.9495C6.59828 14.1768 6.44596 14.6977 6.6733 15.1129L8.17697 14.2897ZM13.7684 3.8697C13.4945 4.25575 13.5853 4.7908 13.9714 5.06478C14.3574 5.33875 14.8925 5.24789 15.1664 4.86184L13.7684 3.8697ZM13.6148 1.52402L14.1108 0.825008L14.1108 0.824968L13.6148 1.52402ZM9.95174 1.1615C9.6778 1.54757 9.76869 2.08261 10.1548 2.35656C10.5408 2.63051 11.0759 2.53961 11.3498 2.15354L9.95174 1.1615ZM15.5083 10.2337C15.9704 10.5615 16.24 11.0424 16.2947 11.4906C16.3469 11.9187 16.209 12.311 15.8413 12.5917L16.8815 13.9543C17.781 13.2677 18.1145 12.2518 17.9964 11.283C17.8807 10.3343 17.338 9.42969 16.4999 8.83534L15.5083 10.2337ZM15.8413 12.5918C14.7312 13.4393 13.4227 14.0152 12.0205 14.2539L12.3082 15.9439C13.9866 15.6582 15.5529 14.9688 16.8815 13.9543L15.8413 12.5918ZM12.0205 14.2539C9.74513 14.6413 7.40903 14.1088 5.52616 12.7737L4.53461 14.1721C6.78832 15.7701 9.58457 16.4075 12.3082 15.9439L12.0205 14.2539ZM5.52617 12.7737C3.64331 11.4386 2.36792 9.41029 1.98059 7.13485L0.290616 7.42252C0.754245 10.1462 2.28085 12.5741 4.5346 14.1721L5.52617 12.7737ZM1.98059 7.13485C1.74191 5.73265 1.85249 4.30742 2.28499 2.97931L0.654957 2.44849C0.137316 4.03805 0.00491142 5.74407 0.290615 7.42252L1.98059 7.13485ZM2.28499 2.97931C2.42822 2.53949 2.75282 2.2795 3.1741 2.18714C3.61513 2.09044 4.15818 2.18574 4.62039 2.51349L5.61197 1.11508C4.77378 0.520735 3.74053 0.307941 2.80697 0.512625C1.85366 0.721638 1.00536 1.37251 0.654958 2.44848L2.28499 2.97931ZM4.6204 2.51349L15.5083 10.2337L16.4998 8.83533L5.61197 1.11508L4.6204 2.51349ZM3.52791 12.3415L0.790335 16.2265L2.19167 17.214L4.92924 13.3289L3.52791 12.3415ZM0.790327 16.2266C-0.282858 17.7496 0.805065 19.8499 2.66822 19.8519L2.67013 18.1377C2.19541 18.1371 1.91823 17.602 2.19168 17.214L0.790327 16.2266ZM2.66822 19.8519L7.34049 19.8571L7.34239 18.1429L2.67013 18.1377L2.66822 19.8519ZM7.34054 19.8571C9.08934 19.859 10.2006 17.986 9.36082 16.452L7.8571 17.2752C8.07112 17.6661 7.78793 18.1433 7.34234 18.1429L7.34054 19.8571ZM9.3608 16.4519L8.17697 14.2897L6.6733 15.1129L7.85713 17.2752L9.3608 16.4519ZM15.1664 4.86184C16.1314 3.50207 15.3786 1.72469 14.1108 0.825008L13.1187 2.22304C13.9586 2.8191 13.9696 3.58628 13.7684 3.8697L15.1664 4.86184ZM14.1108 0.824968C12.8428 -0.0747155 10.9166 -0.198226 9.95174 1.1615L11.3498 2.15354C11.551 1.87009 12.2787 1.62705 13.1188 2.22308L14.1108 0.824968Z"
        fill="currentColor"/>
</svg>
