<svg width="20" height="16" viewBox="0 0 20 16" fill="none" xmlns="http://www.w3.org/2000/svg">
    <path
        d="M2.79996 10.6113L2.18745 2.43502C2.12933 1.65917 2.7892 1 3.62395 1H16.3759C17.2107 1 17.8706 1.65917 17.8124 2.43502L17.2 10.6113M1 11.7194C1 11.0422 1.58742 10.5094 2.26275 10.5591C3.70436 10.665 6.34478 10.81 10 10.81C13.6552 10.81 16.2957 10.665 17.7373 10.5591C18.4126 10.5094 19 11.0422 19 11.7194C19 13.4561 17.6936 14.9002 15.9592 14.9884C14.4732 15.064 12.4679 15.1299 10 15.1299C7.53213 15.1299 5.52686 15.064 4.0408 14.9884C2.30631 14.9002 1 13.4561 1 11.7194Z"
        stroke="currentColor" stroke-width="1.71429" stroke-linecap="round"
        stroke-linejoin="round"/>
</svg>
