<svg width="20" height="18" viewBox="0 0 20 18" fill="none" xmlns="http://www.w3.org/2000/svg">
    <path
        d="M15.8623 14.6171L15.6082 15.4357L15.6082 15.4357L15.8623 14.6171ZM3.04599 10.6387L2.79187 11.4573L2.79188 11.4573L3.04599 10.6387ZM3.04599 5.08379L2.79187 4.26518L2.79187 4.26518L3.04599 5.08379ZM15.8623 1.1053L16.1164 1.92391L16.1164 1.92391L15.8623 1.1053ZM16.7176 1.04435L16.9872 0.230732L16.9871 0.230704L16.7176 1.04435ZM16.7176 14.678L16.4479 13.8644L16.4478 13.8644L16.7176 14.678ZM3.26937 10.4649C2.80382 11.1816 2.53326 12.0353 2.53326 12.9496H4.24755C4.24755 12.3782 4.41572 11.8471 4.70696 11.3988L3.26937 10.4649ZM2.53326 12.9496C2.53326 15.5056 4.63332 17.5556 7.19646 17.5556V15.8413C5.55554 15.8413 4.24755 14.5345 4.24755 12.9496H2.53326ZM7.19646 17.5556C9.69852 17.5556 11.7584 15.6029 11.8561 13.1319L10.1431 13.0641C10.0826 14.5962 8.79753 15.8413 7.19646 15.8413V17.5556ZM16.1164 13.7985L3.3001 9.82004L2.79188 11.4573L15.6082 15.4357L16.1164 13.7985ZM3.3001 9.82004C1.37616 9.22281 1.37615 6.49965 3.30011 5.90239L2.79187 4.26518C-0.74014 5.36162 -0.740156 10.3608 2.79187 11.4573L3.3001 9.82004ZM3.30011 5.90239L16.1164 1.92391L15.6082 0.286694L2.79187 4.26518L3.30011 5.90239ZM16.1164 1.92391C16.2379 1.88619 16.3212 1.86679 16.3844 1.85982C16.4434 1.85332 16.4572 1.86106 16.448 1.858L16.9871 0.230704C16.4294 0.0459363 15.8964 0.197221 15.6081 0.286694L16.1164 1.92391ZM16.4479 1.85798C16.5908 1.90534 16.7876 2.03993 17.0092 2.36308C17.2291 2.68379 17.4349 3.13617 17.6096 3.70846C17.9585 4.85191 18.1429 6.34114 18.1429 7.86121C18.1429 9.38128 17.9585 10.8705 17.6096 12.014C17.4349 12.5862 17.2291 13.0386 17.0092 13.3593C16.7876 13.6825 16.5908 13.817 16.4479 13.8644L16.9872 15.4917C17.6051 15.2869 18.074 14.8378 18.4231 14.3287C18.7738 13.8171 19.0434 13.1886 19.2492 12.5143C19.6611 11.1645 19.8571 9.49741 19.8571 7.86121C19.8571 6.22501 19.6611 4.55796 19.2492 3.20813C19.0434 2.53378 18.7738 1.90527 18.4231 1.3937C18.074 0.884578 17.6051 0.435523 16.9872 0.230732L16.4479 1.85798ZM16.4478 13.8644C16.4571 13.8614 16.4434 13.8691 16.3845 13.8626C16.3213 13.8556 16.238 13.8362 16.1164 13.7985L15.6082 15.4357C15.8962 15.5251 16.4295 15.6766 16.9873 15.4916L16.4478 13.8644Z"
        fill="currentColor"/>
</svg>
