<svg width="20" height="20" viewBox="0 0 20 20" fill="none" xmlns="http://www.w3.org/2000/svg">
    <path
        d="M7.41469 1C7.41469 0.526613 7.03093 0.142857 6.55755 0.142857C6.08416 0.142857 5.7004 0.526613 5.7004 1H7.41469ZM5.7004 4.65645C5.7004 5.12984 6.08416 5.51359 6.55755 5.51359C7.03093 5.51359 7.41469 5.12984 7.41469 4.65645H5.7004ZM13.8751 1C13.8751 0.526613 13.4913 0.142857 13.0179 0.142857C12.5445 0.142857 12.1608 0.526613 12.1608 1H13.8751ZM12.1608 4.65645C12.1608 5.12984 12.5445 5.51359 13.0179 5.51359C13.4913 5.51359 13.8751 5.12984 13.8751 4.65645H12.1608ZM1.28481 15.076L0.433003 15.1714L0.433005 15.1715L1.28481 15.076ZM5.28517 18.8947L5.24392 19.7509L5.24398 19.7509L5.28517 18.8947ZM14.2999 18.8947L14.341 19.7509L14.3411 19.7509L14.2999 18.8947ZM18.3002 15.076L17.4484 14.9805L17.4484 14.9805L18.3002 15.076ZM18.3002 6.50656L17.4484 6.60202L17.4484 6.60208L18.3002 6.50656ZM14.2999 2.68779L14.2586 3.54394L14.2586 3.54395L14.2999 2.68779ZM5.28517 2.68779L5.3264 3.54395L5.3264 3.54394L5.28517 2.68779ZM1.28481 6.50656L0.433004 6.41108L0.433004 6.41109L1.28481 6.50656ZM5.47244 7.77394C4.99905 7.77394 4.6153 8.1577 4.6153 8.63108C4.6153 9.10447 4.99905 9.48823 5.47244 9.48823V7.77394ZM6.19244 9.48823C6.66583 9.48823 7.04959 9.10447 7.04959 8.63108C7.04959 8.1577 6.66583 7.77394 6.19244 7.77394V9.48823ZM5.47244 12.094C4.99905 12.094 4.6153 12.4777 4.6153 12.9511C4.6153 13.4245 4.99905 13.8083 5.47244 13.8083V12.094ZM6.19244 13.8083C6.66583 13.8083 7.04959 13.4245 7.04959 12.9511C7.04959 12.4777 6.66583 12.094 6.19244 12.094V13.8083ZM9.43247 7.77394C8.95908 7.77394 8.57533 8.1577 8.57533 8.63108C8.57533 9.10447 8.95908 9.48823 9.43247 9.48823V7.77394ZM10.1525 9.48823C10.6259 9.48823 11.0096 9.10447 11.0096 8.63108C11.0096 8.1577 10.6259 7.77394 10.1525 7.77394V9.48823ZM13.3925 7.77394C12.9191 7.77394 12.5354 8.1577 12.5354 8.63108C12.5354 9.10447 12.9191 9.48823 13.3925 9.48823V7.77394ZM14.1125 9.48823C14.5859 9.48823 14.9697 9.10447 14.9697 8.63108C14.9697 8.1577 14.5859 7.77394 14.1125 7.77394V9.48823ZM9.43247 12.094C8.95908 12.094 8.57533 12.4777 8.57533 12.9511C8.57533 13.4245 8.95908 13.8083 9.43247 13.8083V12.094ZM10.1525 13.8083C10.6259 13.8083 11.0096 13.4245 11.0096 12.9511C11.0096 12.4777 10.6259 12.094 10.1525 12.094V13.8083ZM5.7004 1V4.65645H7.41469V1H5.7004ZM12.1608 1V4.65645H13.8751V1H12.1608ZM0.433005 15.1715C0.710192 17.6442 2.72254 19.6294 5.24392 19.7509L5.32641 18.0386C3.6812 17.9593 2.3241 16.6529 2.13662 14.9805L0.433005 15.1715ZM5.24398 19.7509C6.6981 19.8208 8.1828 19.8571 9.79252 19.8571V18.1429C8.20933 18.1429 6.75211 18.1072 5.32635 18.0386L5.24398 19.7509ZM9.79252 19.8571C11.4022 19.8571 12.8869 19.8208 14.341 19.7509L14.2587 18.0386C12.8329 18.1072 11.3757 18.1429 9.79252 18.1429V19.8571ZM14.3411 19.7509C16.8624 19.6294 18.8749 17.6442 19.152 15.1714L17.4484 14.9805C17.261 16.6529 15.9038 17.9593 14.2586 18.0386L14.3411 19.7509ZM19.152 15.1715C19.3097 13.7652 19.4422 12.2969 19.4422 10.7912H17.7279C17.7279 12.2012 17.6038 13.595 17.4484 14.9805L19.152 15.1715ZM19.4422 10.7912C19.4422 9.28558 19.3097 7.81732 19.152 6.41104L17.4484 6.60208C17.6038 7.98747 17.7279 9.38131 17.7279 10.7912H19.4422ZM19.152 6.4111C18.8749 3.93818 16.8624 1.95307 14.3411 1.83164L14.2586 3.54395C15.9038 3.62317 17.261 4.92949 17.4484 6.60202L19.152 6.4111ZM14.3411 1.83164C12.887 1.76161 11.4023 1.72526 9.79252 1.72526V3.43954C11.3757 3.43954 12.8329 3.47528 14.2586 3.54394L14.3411 1.83164ZM9.79252 1.72526C8.18278 1.72526 6.69807 1.76161 5.24393 1.83164L5.3264 3.54394C6.75214 3.47528 8.20934 3.43954 9.79252 3.43954V1.72526ZM5.24394 1.83164C2.72255 1.95307 0.710189 3.9382 0.433004 6.41108L2.13662 6.60204C2.3241 4.92947 3.68119 3.62317 5.3264 3.54395L5.24394 1.83164ZM0.433004 6.41109C0.275389 7.8173 0.142857 9.28557 0.142857 10.7912H1.85714C1.85714 9.38132 1.98133 7.98749 2.13662 6.60204L0.433004 6.41109ZM0.142857 10.7912C0.142857 12.2969 0.275389 13.7652 0.433003 15.1714L2.13662 14.9805C1.98133 13.595 1.85714 12.2011 1.85714 10.7912H0.142857ZM5.47244 9.48823H6.19244V7.77394H5.47244V9.48823ZM5.47244 13.8083H6.19244V12.094H5.47244V13.8083ZM9.43247 9.48823H10.1525V7.77394H9.43247V9.48823ZM13.3925 9.48823H14.1125V7.77394H13.3925V9.48823ZM9.43247 13.8083H10.1525V12.094H9.43247V13.8083Z"
        fill="currentColor"/>
</svg>
