<svg width="20" height="20" viewBox="0 0 20 20" fill="none" xmlns="http://www.w3.org/2000/svg">
    <path
        d="M1.56522 17.0853L2.41747 16.9939L2.41747 16.9939L1.56522 17.0853ZM2.88839 18.4096L2.79522 19.2617L2.79525 19.2617L2.88839 18.4096ZM17.1116 18.4096L17.2047 19.2617L17.2048 19.2617L17.1116 18.4096ZM18.4347 17.0853L17.5825 16.9939L17.5825 16.9939L18.4347 17.0853ZM18.4347 2.91458L17.5825 3.00598L17.5825 3.00606L18.4347 2.91458ZM17.1116 1.59035L17.2047 0.738282L17.2047 0.738282L17.1116 1.59035ZM2.88839 1.59035L2.79524 0.738282L2.79524 0.738282L2.88839 1.59035ZM1.56522 2.91458L2.41747 3.00606L2.41747 3.00605L1.56522 2.91458ZM7.16077 12.9275L8.00927 12.8061L8.00927 12.8061L7.16077 12.9275ZM8.90002 14.0151L9.18733 14.8227L9.18734 14.8227L8.90002 14.0151ZM13.8112 10.7265L13.1359 10.1986L13.1359 10.1986L13.8112 10.7265ZM13.8113 9.27309L14.4866 8.74525L14.4866 8.74525L13.8113 9.27309ZM8.9001 5.98451L8.61279 6.79207L8.6128 6.79207L8.9001 5.98451ZM7.16087 7.07204L6.31237 6.9506L6.31237 6.95062L7.16087 7.07204ZM0.712974 17.1768C0.830796 18.2746 1.70007 19.1419 2.79522 19.2617L2.98157 17.5576C2.68457 17.5251 2.4491 17.2885 2.41747 16.9939L0.712974 17.1768ZM2.79525 19.2617C5.03182 19.5062 7.48472 19.8571 9.99999 19.8571V18.1429C7.60672 18.1429 5.29438 17.8104 2.98153 17.5576L2.79525 19.2617ZM9.99999 19.8571C12.5153 19.8571 14.9682 19.5062 17.2047 19.2617L17.0184 17.5576C14.7056 17.8104 12.3933 18.1429 9.99999 18.1429V19.8571ZM17.2048 19.2617C18.2999 19.1419 19.1692 18.2746 19.287 17.1767L17.5825 16.9939C17.5509 17.2885 17.3154 17.5251 17.0184 17.5576L17.2048 19.2617ZM19.287 17.1768C19.5268 14.9427 19.8571 12.5044 19.8571 9.99999H18.1429C18.1429 12.3859 17.8292 14.6952 17.5825 16.9939L19.287 17.1768ZM19.8571 9.99999C19.8571 7.49557 19.5268 5.05724 19.287 2.82309L17.5825 3.00606C17.8292 5.30471 18.1429 7.61405 18.1429 9.99999H19.8571ZM19.287 2.82318C19.1692 1.72531 18.2998 0.858012 17.2047 0.738282L17.0184 2.44241C17.3155 2.47489 17.5509 2.71141 17.5825 3.00598L19.287 2.82318ZM17.2047 0.738282C14.9682 0.49377 12.5153 0.142857 9.99999 0.142857V1.85714C12.3933 1.85714 14.7057 2.18957 17.0184 2.44241L17.2047 0.738282ZM9.99999 0.142857C7.48471 0.142857 5.03185 0.49377 2.79524 0.738282L2.98154 2.44241C5.29435 2.18957 7.60672 1.85714 9.99999 1.85714V0.142857ZM2.79524 0.738282C1.70011 0.858014 0.830799 1.72532 0.712974 2.82311L2.41747 3.00605C2.44909 2.7114 2.68454 2.47489 2.98155 2.44241L2.79524 0.738282ZM0.712975 2.8231C0.473165 5.05726 0.142857 7.49557 0.142857 9.99999H1.85714C1.85714 7.61404 2.17074 5.30469 2.41747 3.00606L0.712975 2.8231ZM0.142857 9.99999C0.142857 12.5044 0.473165 14.9427 0.712975 17.1768L2.41747 16.9939C2.17074 14.6952 1.85714 12.3859 1.85714 9.99999H0.142857ZM6.0296 9.99981C6.0296 10.8832 6.17791 12.1097 6.31226 13.0489L8.00927 12.8061C7.87486 11.8665 7.74389 10.7483 7.74389 9.99981H6.0296ZM6.31226 13.0489C6.50305 14.3826 7.84723 15.2995 9.18733 14.8227L8.6127 13.2076C8.36351 13.2962 8.05736 13.1423 8.00927 12.8061L6.31226 13.0489ZM9.18734 14.8227C11.188 14.1108 13.1288 12.9913 14.4865 11.2544L13.1359 10.1986C12.0454 11.5937 10.4284 12.5616 8.61269 13.2076L9.18734 14.8227ZM14.4865 11.2544C15.0634 10.5163 15.0635 9.48332 14.4866 8.74525L13.1359 9.80093C13.228 9.91868 13.228 10.0809 13.1359 10.1986L14.4865 11.2544ZM14.4866 8.74525C13.129 7.00823 11.1881 5.88873 9.18741 5.17695L8.6128 6.79207C10.4285 7.43804 12.0455 8.40582 13.1359 9.80093L14.4866 8.74525ZM9.18741 5.17695C7.84736 4.70019 6.50325 5.61697 6.31237 6.9506L8.00937 7.19348C8.05748 6.85729 8.36362 6.70341 8.61279 6.79207L9.18741 5.17695ZM6.31237 6.95062C6.17797 7.88984 6.0296 9.11642 6.0296 9.99981H7.74389C7.74389 9.25128 7.87491 8.13308 8.00937 7.19346L6.31237 6.95062Z"
        fill="currentColor"/>
</svg>
