<svg width="20" height="20" viewBox="0 0 20 20" fill="none" xmlns="http://www.w3.org/2000/svg">
    <path
        d="M18.4664 11.8311C18.4659 11.3596 18.3414 10.8966 18.1053 10.4885C17.8693 10.0804 17.5301 9.74156 17.1215 9.50605C16.7132 9.27052 16.2501 9.14661 15.7786 9.14673C15.3071 9.14684 15.088 9.2717 14.6797 9.50743L14.4356 6.37898C14.4356 6.02264 14.2941 5.6809 14.0421 5.42894C13.7902 5.17697 13.4484 5.03542 13.0921 5.03542L10.3391 4.7394C10.576 4.33098 10.7052 4.16341 10.7059 3.69126C10.7067 3.2191 10.583 2.75509 10.3473 2.34594C10.1117 1.93681 9.77234 1.59698 9.36357 1.36069C8.9548 1.12441 8.49097 1 8.01881 1C7.54666 1 7.08284 1.12441 6.67405 1.36069C6.26528 1.59698 5.92597 1.93681 5.69031 2.34594C5.45466 2.75509 5.33096 3.2191 5.33168 3.69126C5.33241 4.16341 5.4534 4.33098 5.69031 4.7394L2.34356 5.03542C1.98723 5.03542 1.64549 5.17697 1.39352 5.42894C1.14155 5.6809 1 6.02264 1 6.37898L1.04192 7.91162C1.06039 8.58661 1.72253 9.06577 2.37884 9.22459C2.8543 9.33963 3.29845 9.57976 3.64971 9.93101C4.15364 10.435 4.43675 11.1184 4.43675 11.8311C4.43675 12.5438 4.15364 13.2273 3.64971 13.7312C3.29845 14.0824 2.8543 14.3226 2.37884 14.4377C1.72214 14.5965 1.05939 15.0752 1.03985 15.7505L1 17.1274C1 17.4838 1.14155 17.8256 1.39352 18.0776C3.35197 19.3723 12.3474 19.2409 14.0421 18.0776C14.2941 17.8256 14.4356 17.4838 14.4356 17.1274L14.6797 14.1562C15.088 14.3919 15.3071 14.5153 15.7786 14.5154C16.2501 14.5156 16.7132 14.3917 17.1215 14.1562C17.5301 13.9206 17.8693 13.5818 18.1053 13.1737C18.3414 12.7656 18.4659 12.3026 18.4664 11.8311Z"
        stroke="currentColor" stroke-width="1.71429" stroke-linecap="round"
        stroke-linejoin="round"/>
</svg>
