<svg width="24" height="25" viewBox="0 0 24 25" fill="none" xmlns="http://www.w3.org/2000/svg">
    <path
        d="M23.3716 16.5086L20.9692 14.2463V8.6716C21.0011 6.6015 20.2322 4.59048 18.8045 3.00986C17.3767 1.42924 15.3864 0.385767 13.2012 0.0721169C11.933 -0.0842897 10.6438 0.014389 9.4195 0.361569C8.19524 0.708749 7.06411 1.29645 6.1016 2.08545C5.13909 2.87445 4.36732 3.84661 3.8378 4.93707C3.30827 6.02752 3.03316 7.2112 3.03083 8.40911V14.2463L0.62837 16.5086C0.326603 16.7959 0.121964 17.1602 0.0400356 17.5558C-0.0418925 17.9514 0.00252527 18.3609 0.167736 18.733C0.332947 19.1052 0.61162 19.4234 0.96892 19.648C1.32622 19.8727 1.74629 19.9937 2.17662 19.9959H6.66121V20.4209C6.72355 21.6898 7.32048 22.8838 8.32121 23.7414C9.32193 24.5989 10.6448 25.0499 12 24.9956C13.3552 25.0499 14.6781 24.5989 15.6788 23.7414C16.6795 22.8838 17.2764 21.6898 17.3388 20.4209V19.9959H21.8234C22.2537 19.9937 22.6738 19.8727 23.0311 19.648C23.3884 19.4234 23.6671 19.1052 23.8323 18.733C23.9975 18.3609 24.0419 17.9514 23.96 17.5558C23.878 17.1602 23.6734 16.7959 23.3716 16.5086ZM14.6694 20.4209C14.5954 21.0221 14.2765 21.5734 13.7792 21.9599C13.282 22.3464 12.6446 22.5384 12 22.4958C11.3554 22.5384 10.718 22.3464 10.2208 21.9599C9.72348 21.5734 9.40462 21.0221 9.3306 20.4209V19.9959H14.6694V20.4209ZM3.33781 17.4961L4.91275 16.0212C5.16257 15.7886 5.36076 15.512 5.49591 15.2074C5.63106 14.9028 5.7005 14.5761 5.70022 14.2463V8.40911C5.70095 7.56592 5.89427 6.73262 6.2672 5.96515C6.64012 5.19768 7.18404 4.51379 7.86243 3.95938C8.53168 3.39152 9.3247 2.96663 10.1866 2.71412C11.0485 2.46162 11.9587 2.38752 12.8542 2.49697C14.3978 2.73168 15.7988 3.48067 16.7994 4.60607C17.8 5.73146 18.3329 7.15749 18.2998 8.6216V14.2463C18.2977 14.5753 18.3651 14.9014 18.4979 15.206C18.6308 15.5105 18.8265 15.7876 19.0739 16.0212L20.6622 17.4961H3.33781Z"
        fill="white"/>
</svg>
