<svg width="18" height="20" viewBox="0 0 18 20" fill="none" xmlns="http://www.w3.org/2000/svg">
    <path
        d="M4.70495 18.8625L4.76695 18.0076L4.76694 18.0076L4.70495 18.8625ZM13.3792 18.8625L13.3172 18.0076L13.3172 18.0076L13.3792 18.8625ZM16.9653 15.2749L17.8196 15.3444L17.8196 15.3442L16.9653 15.2749ZM16.9653 9.56532L16.1109 9.63471V9.63471L16.9653 9.56532ZM13.3792 5.97769L13.3172 6.83258L13.3172 6.83258L13.3792 5.97769ZM4.70495 5.97769L4.76695 6.83258L4.76696 6.83258L4.70495 5.97769ZM1.11898 9.56532L1.97331 9.63471L1.97331 9.63471L1.11898 9.56532ZM1.11898 15.2749L0.264652 15.3443L0.264652 15.3443L1.11898 15.2749ZM9.04202 5.81295L8.31398 6.26534C8.47038 6.51703 8.74569 6.67009 9.04202 6.67009C9.33835 6.67009 9.61366 6.51703 9.77006 6.26534L9.04202 5.81295ZM11.3245 2.13965L12.0526 2.59204L12.0526 2.59204L11.3245 2.13965ZM15.5194 2.27772L14.7629 2.68065L14.7629 2.68067L15.5194 2.27772ZM14.4419 5.55281L14.0686 4.78124L14.0685 4.78125L14.4419 5.55281ZM13.1704 5.21584C12.7443 5.42203 12.566 5.93463 12.7722 6.36075C12.9784 6.78687 13.491 6.96515 13.9171 6.75895L13.1704 5.21584ZM6.75952 2.13965L6.03148 2.59204L6.03148 2.59204L6.75952 2.13965ZM2.56453 2.27772L3.32106 2.68066L3.32106 2.68065L2.56453 2.27772ZM3.64208 5.55281L3.26875 6.32438L3.26876 6.32438L3.64208 5.55281ZM4.16693 6.75897C4.59306 6.96515 5.10565 6.78685 5.31183 6.36072C5.51801 5.9346 5.33971 5.42201 4.91358 5.21582L4.16693 6.75897ZM4.64294 19.7174C5.95759 19.8128 7.40943 19.8571 9.04208 19.8571V18.1429C7.43922 18.1429 6.03019 18.0993 4.76695 18.0076L4.64294 19.7174ZM9.04208 19.8571C10.6747 19.8571 12.1266 19.8128 13.4412 19.7174L13.3172 18.0076C12.054 18.0993 10.645 18.1429 9.04208 18.1429V19.8571ZM13.4412 19.7174C15.7971 19.5466 17.6298 17.6794 17.8196 15.3444L16.1109 15.2055C15.988 16.7171 14.8105 17.8994 13.3172 18.0076L13.4412 19.7174ZM17.8196 15.3442C17.8969 14.3906 17.9412 13.4168 17.9412 12.42H16.227C16.227 13.3658 16.1849 14.2932 16.1109 15.2057L17.8196 15.3442ZM17.9412 12.42C17.9412 11.4234 17.8971 10.4496 17.8196 9.49592L16.1109 9.63471C16.185 10.5469 16.227 11.4742 16.227 12.42H17.9412ZM17.8196 9.49593C17.6299 7.1608 15.7971 5.29365 13.4412 5.12279L13.3172 6.83258C14.8106 6.94089 15.9882 8.12318 16.1109 9.63471L17.8196 9.49593ZM13.4412 5.12279C12.1266 5.02742 10.6747 4.98312 9.04208 4.98312V6.69741C10.645 6.69741 12.054 6.74095 13.3172 6.83258L13.4412 5.12279ZM9.04208 4.98312C7.40945 4.98312 5.9576 5.02742 4.64293 5.12279L4.76696 6.83258C6.03018 6.74095 7.4392 6.69741 9.04208 6.69741V4.98312ZM4.64295 5.12279C2.28705 5.29365 0.454306 7.16083 0.264652 9.49593L1.97331 9.63471C2.09608 8.12315 3.2736 6.94089 4.76695 6.83258L4.64295 5.12279ZM0.264652 9.49592C0.187194 10.4495 0.142857 11.4234 0.142857 12.42H1.85714C1.85714 11.4743 1.89921 10.547 1.97331 9.63471L0.264652 9.49592ZM0.142857 12.42C0.142857 13.4168 0.187194 14.3906 0.264652 15.3443L1.97331 15.2056C1.89921 14.2932 1.85714 13.3658 1.85714 12.42H0.142857ZM0.264652 15.3443C0.454306 17.6794 2.28704 19.5466 4.64296 19.7174L4.76694 18.0076C3.27361 17.8994 2.09608 16.7171 1.97331 15.2056L0.264652 15.3443ZM1 11.815H17.0841V10.1007H1V11.815ZM9.89922 19V5.84026H8.18493V19H9.89922ZM9.77006 6.26534L12.0526 2.59204L10.5965 1.68727L8.31398 5.36057L9.77006 6.26534ZM12.0526 2.59204C12.6857 1.57304 14.2002 1.62413 14.7629 2.68065L16.276 1.87479C15.0914 -0.349321 11.9259 -0.45225 10.5965 1.68727L12.0526 2.59204ZM14.7629 2.68067C15.1702 3.44537 14.8617 4.39747 14.0686 4.78124L14.8152 6.32439C16.4767 5.52049 17.1445 3.50534 16.276 1.87477L14.7629 2.68067ZM14.0685 4.78125L13.1704 5.21584L13.9171 6.75895L14.8152 6.32437L14.0685 4.78125ZM9.77006 5.36057L7.48756 1.68727L6.03148 2.59204L8.31398 6.26534L9.77006 5.36057ZM7.48756 1.68727C6.15812 -0.452245 2.99255 -0.349329 1.80799 1.87479L3.32106 2.68065C3.88375 1.62414 5.3983 1.57303 6.03148 2.59204L7.48756 1.68727ZM1.808 1.87479C0.93955 3.50534 1.60731 5.52048 3.26875 6.32438L4.01541 4.78124C3.22229 4.39748 2.91376 3.44537 3.32106 2.68066L1.808 1.87479ZM3.26876 6.32438L4.16693 6.75897L4.91358 5.21582L4.01541 4.78124L3.26876 6.32438Z"
        fill="currentColor"/>
</svg>
