<svg width="17" height="20" viewBox="0 0 17 20" fill="none" xmlns="http://www.w3.org/2000/svg">
    <path
        d="M2.5232 3.55396L2.41868 2.70322L2.41868 2.70322L2.5232 3.55396ZM1.22478 4.90011L2.07981 4.9603L2.07981 4.96029L1.22478 4.90011ZM1.22478 17.4366L0.369753 17.4968L0.369753 17.4968L1.22478 17.4366ZM2.52611 18.7576L2.45437 19.6118L2.45453 19.6118L2.52611 18.7576ZM13.7639 18.7576L13.8354 19.6118L13.8356 19.6118L13.7639 18.7576ZM15.0652 17.4366L15.9202 17.4968L15.9202 17.4968L15.0652 17.4366ZM15.0652 4.90011L15.9202 4.83994L15.9202 4.83991L15.0652 4.90011ZM13.7668 3.55396L13.8713 2.70322L13.8713 2.70322L13.7668 3.55396ZM3.93464 2.51199C3.41069 2.57725 2.92262 2.64131 2.41868 2.70322L2.62771 4.40471C3.12332 4.34383 3.6472 4.27533 4.14653 4.21313L3.93464 2.51199ZM2.41868 2.70322C1.33046 2.83692 0.449059 3.71317 0.369752 4.83992L2.07981 4.96029C2.09921 4.68466 2.32057 4.44245 2.62772 4.40471L2.41868 2.70322ZM0.369753 4.83991C0.0672253 9.13724 0.0672253 13.1996 0.369753 17.4968L2.07981 17.3764C1.78292 13.1593 1.78292 9.17747 2.07981 4.9603L0.369753 4.83991ZM0.369753 17.4968C0.44869 18.618 1.33122 19.5174 2.45437 19.6118L2.59785 17.9035C2.32007 17.8802 2.09961 17.6577 2.07981 17.3764L0.369753 17.4968ZM2.45453 19.6118C6.35806 19.9389 9.93184 19.9389 13.8354 19.6118L13.6923 17.9035C9.88396 18.2226 6.40595 18.2226 2.59769 17.9035L2.45453 19.6118ZM13.8356 19.6118C14.9587 19.5174 15.8413 18.618 15.9202 17.4968L14.2102 17.3764C14.1904 17.6577 13.9699 17.8802 13.6921 17.9035L13.8356 19.6118ZM15.9202 17.4968C16.2226 13.1996 16.2226 9.13725 15.9202 4.83994L14.2102 4.96027C14.5069 9.17746 14.5069 13.1594 14.2102 17.3765L15.9202 17.4968ZM15.9202 4.83991C15.8409 3.71311 14.9593 2.83692 13.8713 2.70322L13.6622 4.40471C13.9693 4.44244 14.1908 4.68471 14.2102 4.96031L15.9202 4.83991ZM13.8713 2.70322C13.3675 2.64133 12.879 2.57723 12.3553 2.51199L12.1434 4.21313C12.6428 4.27535 13.1665 4.34381 13.6623 4.40471L13.8713 2.70322ZM6.18733 1.85714H10.1018V0.142857H6.18733V1.85714ZM10.1018 1.85714C10.822 1.85714 11.4058 2.44096 11.4058 3.16114H13.1201C13.1201 1.49419 11.7688 0.142857 10.1018 0.142857V1.85714ZM11.4058 3.16114V3.1626H13.1201V3.16114H11.4058ZM11.4058 3.1626C11.4058 3.88278 10.822 4.4666 10.1018 4.4666V6.18089C11.7688 6.18089 13.1201 4.82955 13.1201 3.1626H11.4058ZM10.1018 4.4666H6.18733V6.18089H10.1018V4.4666ZM6.18733 4.4666C5.46715 4.4666 4.88333 3.88278 4.88333 3.1626H3.16904C3.16904 4.82955 4.52037 6.18089 6.18733 6.18089V4.4666ZM4.88333 3.1626V3.16114H3.16904V3.1626H4.88333ZM4.88333 3.16114C4.88333 2.44096 5.46715 1.85714 6.18733 1.85714V0.142857C4.52037 0.142857 3.16904 1.49419 3.16904 3.16114H4.88333Z"
        fill="currentColor"/>
</svg>
