<svg width="18" height="18" viewBox="0 0 18 18" fill="none" xmlns="http://www.w3.org/2000/svg">
    <path
        d="M1.32007 12.086L1.02328 8.77534C0.701996 4.91262 3.7235 1 9.00889 1C14.2942 1 17.3157 4.91262 16.9944 8.77534L16.6977 12.086M11.4659 11.2744C11.5897 9.8596 12.8369 8.81305 14.2516 8.93683L14.3937 8.94925C15.8084 9.07303 16.8549 10.3203 16.7311 11.735L16.4884 14.5096C16.3647 15.9244 15.1174 16.971 13.7026 16.8472L13.5607 16.8347C12.1459 16.7109 11.0994 15.4638 11.2231 14.049L11.4659 11.2744ZM1.28658 11.7352C1.16281 10.3204 2.20935 9.07318 3.62411 8.9494L3.76611 8.93697C5.18086 8.8132 6.42809 9.85975 6.55186 11.2745L6.79461 14.0491C6.91838 15.4639 5.87184 16.7112 4.45707 16.8349L4.31508 16.8473C2.90033 16.9711 1.6531 15.9246 1.52932 14.5098L1.28658 11.7352Z"
        stroke="currentColor" stroke-width="1.71429"/>
</svg>
