<svg width="24" height="24" viewBox="0 0 24 24" fill="none" xmlns="http://www.w3.org/2000/svg">
    <path
        d="M21.1058 22.2306C21.9141 20.8972 22.4272 19.588 22.4272 17.6059C22.4272 13.6421 18.5925 12.6449 15.8206 12.357V8.02646C15.8206 6.74941 14.7854 5.71415 13.5083 5.71415C12.2313 5.71415 11.196 6.74941 11.196 8.02646V14.9634L10.4689 15.3789C8.506 16.5005 8.14696 19.1815 9.74553 20.7801L11.196 22.2306M18.6559 4.85714C18.8749 4.47892 19 4.03981 19 3.57143C19 2.15126 17.8487 1 16.4286 1H14.7143C13.9892 1 13.3342 1.30013 12.8667 1.78295M7.85714 13C7.85714 11.5798 6.70588 10.4286 5.28571 10.4286H3.57143C2.15126 10.4286 1 11.5798 1 13C1 14.4202 2.15126 15.5714 3.57143 15.5714H5.28571M3.57143 1H5.28571C6.70587 1 7.85714 2.15127 7.85714 3.57143C7.85714 4.99159 6.70587 6.14286 5.28571 6.14286H3.57143C2.15127 6.14286 1 4.99159 1 3.57143C1 2.15127 2.15127 1 3.57143 1Z"
        stroke="currentColor" stroke-width="1.71429" stroke-linecap="round"
        stroke-linejoin="round"/>
</svg>
