<svg xmlns="http://www.w3.org/2000/svg" width="43.006" height="37.596" viewBox="0 0 43.006 37.596">
    <g id="pos_gold" transform="translate(-722 -190)">
        <path id="Path_1535" data-name="Path 1535"
              d="M31.6,32.2H11.408a1.313,1.313,0,0,0-1.137.657L.176,50.344a1.313,1.313,0,0,0,0,1.313L10.271,69.143a1.313,1.313,0,0,0,1.137.657H31.6a1.313,1.313,0,0,0,1.137-.657L42.83,51.658a1.313,1.313,0,0,0,0-1.313L32.736,32.86A1.313,1.313,0,0,0,31.6,32.2Z"
              transform="translate(722 157.797)" fill="#ffd45d"/>
        <path id="Path_1536" data-name="Path 1536"
              d="M347.816,256h-8.608l-6.448,11.168,4.3,7.455a1.312,1.312,0,0,0,.481-.481l10.095-17.485A1.312,1.312,0,0,0,347.816,256Z"
              transform="translate(417.191 -47.202)" fill="#ff6500"/>
        <path id="Path_1537" data-name="Path 1537"
              d="M145.2,388.953H132.3l-4.3,7.455a1.313,1.313,0,0,0,.657.176h20.19a1.313,1.313,0,0,0,.657-.176Z"
              transform="translate(604.752 -168.987)" fill="#ff9416"/>
        <path id="Path_1538" data-name="Path 1538"
              d="M15.056,267.168,8.608,256H0a1.312,1.312,0,0,0,.176.657l10.095,17.485a1.312,1.312,0,0,0,.481.481Z"
              transform="translate(722 -47.202)" fill="#ffc13f"/>
        <path id="Path_1539" data-name="Path 1539"
              d="M15.056,41.752l-4.3-7.455a1.312,1.312,0,0,0-.481.481L.176,52.263A1.312,1.312,0,0,0,0,52.919H8.608Z"
              transform="translate(722 155.879)" fill="#ffd45d"/>
        <path id="Path_1540" data-name="Path 1540"
              d="M132.3,39.833h12.9l4.3-7.455a1.312,1.312,0,0,0-.657-.176h-20.19a1.312,1.312,0,0,0-.657.176Z"
              transform="translate(604.752 157.798)" fill="#ffc13f"/>
        <path id="Path_1541" data-name="Path 1541"
              d="M332.76,41.752l6.448,11.168h8.608a1.312,1.312,0,0,0-.176-.657L337.545,34.778a1.312,1.312,0,0,0-.481-.481Z"
              transform="translate(417.191 155.879)" fill="#ff9416"/>
        <path id="Path_1542" data-name="Path 1542"
              d="M121.822,123.047h-12.9l-6.448,11.168,6.448,11.168h12.9l6.448-11.168Z"
              transform="translate(628.129 74.584)" fill="#ff7b05"/>
        <path id="Path_1543" data-name="Path 1543"
              d="M158.1,104.876l.822-.614a.221.221,0,0,1,.328.277l-.466.914a.22.22,0,0,0,.069.28l.838.592a.221.221,0,0,1-.162.4l-1.013-.161a.221.221,0,0,0-.245.152l-.3.98a.221.221,0,0,1-.428-.031l-.16-1.013a.221.221,0,0,0-.221-.186l-1.026.014a.221.221,0,0,1-.1-.417l.914-.465a.22.22,0,0,0,.109-.267l-.33-.971a.221.221,0,0,1,.365-.227l.725.726A.221.221,0,0,0,158.1,104.876Z"
              transform="translate(579.188 91.972)" fill="#fff"/>
        <text id="_1" data-name="1" transform="translate(740 213)" fill="#fff" font-size="13"
              font-family="Roboto-Bold, Roboto" font-weight="700">
            <tspan x="0" y="0">1</tspan>
        </text>
    </g>
</svg>
